<?xml version="1.0" encoding="UTF-8" standalone="no"?>
<!DOCTYPE svg PUBLIC "-//W3C//DTD SVG 1.1//EN"
 "http://www.w3.org/Graphics/SVG/1.1/DTD/svg11.dtd">
<!-- Generated by graphviz version 3.0.0 (20220226.1711)
 -->
<!-- Title: hierarchy Pages: 1 -->
<svg width="353pt" height="265pt"
 viewBox="0.00 0.00 352.50 264.50" xmlns="http://www.w3.org/2000/svg" xmlns:xlink="http://www.w3.org/1999/xlink">
<g id="graph0" class="graph" transform="scale(1 1) rotate(0) translate(4 260.5)">
<title>hierarchy</title>
<!-- Document -->
<g id="node1" class="node">
<title>Document</title>
<polygon fill="white" stroke="black" points="10.5,-139 10.5,-249 82.5,-249 82.5,-139 10.5,-139"/>
<text text-anchor="start" x="18.5" y="-234.8" font-family="Times,serif" font-style="italic" font-size="14.00">Document</text>
<polyline fill="none" stroke="black" points="10.5,-226 82.5,-226 "/>
<text text-anchor="start" x="44.5" y="-210.8" font-family="Times,serif" font-size="14.00"> </text>
<polyline fill="none" stroke="black" points="10.5,-203 82.5,-203 "/>
<text text-anchor="start" x="25.5" y="-188.8" font-family="Times,serif" font-size="14.00">+save()</text>
<text text-anchor="start" x="24.5" y="-174.8" font-family="Times,serif" font-size="14.00">+open()</text>
<text text-anchor="start" x="23.5" y="-160.8" font-family="Times,serif" font-size="14.00">+close()</text>
<text text-anchor="start" x="21" y="-146.8" font-family="Times,serif" font-style="italic" font-size="14.00">doRead()</text>
</g>
<!-- Application -->
<g id="node3" class="node">
<title>Application</title>
<polygon fill="white" stroke="black" points="180.5,-132 180.5,-256 344.5,-256 344.5,-132 180.5,-132"/>
<text text-anchor="start" x="230.5" y="-241.8" font-family="Times,serif" font-style="italic" font-size="14.00">Application</text>
<polyline fill="none" stroke="black" points="180.5,-233 344.5,-233 "/>
<text text-anchor="start" x="260.5" y="-217.8" font-family="Times,serif" font-size="14.00"> </text>
<polyline fill="none" stroke="black" points="180.5,-210 344.5,-210 "/>
<text text-anchor="start" x="215.5" y="-195.8" font-family="Times,serif" font-size="14.00">+addDocument()</text>
<text text-anchor="start" x="212" y="-181.8" font-family="Times,serif" font-size="14.00">+openDocument()</text>
<text text-anchor="start" x="200.5" y="-167.8" font-family="Times,serif" font-size="14.00">+</text>
<text text-anchor="start" x="209.5" y="-167.8" font-family="Times,serif" font-style="italic" font-size="14.00">doCreateDocument()</text>
<text text-anchor="start" x="201" y="-153.8" font-family="Times,serif" font-size="14.00">+</text>
<text text-anchor="start" x="210" y="-153.8" font-family="Times,serif" font-style="italic" font-size="14.00">canOpenDocument()</text>
<text text-anchor="start" x="188.5" y="-139.8" font-family="Times,serif" font-size="14.00">+</text>
<text text-anchor="start" x="197.5" y="-139.8" font-family="Times,serif" font-style="italic" font-size="14.00">aboutToOpenDocument()</text>
</g>
<!-- Document&#45;&gt;Application -->
<g id="edge4" class="edge">
<title>Document&#45;&gt;Application</title>
<path fill="none" stroke="black" d="M82.65,-194C106.09,-194 137.78,-194 168.03,-194"/>
<polygon fill="none" stroke="black" points="168.43,-194 174.43,-190 180.43,-194 174.43,-198 168.43,-194"/>
<text text-anchor="middle" x="158.43" y="-197.8" font-family="Times,serif" font-size="14.00">docs &#160;&#160;&#160;&#160;</text>
</g>
<!-- MyDocument -->
<g id="node2" class="node">
<title>MyDocument</title>
<polygon fill="white" stroke="black" points="0,-15.5 0,-84.5 93,-84.5 93,-15.5 0,-15.5"/>
<text text-anchor="start" x="8" y="-69.3" font-family="Times,serif" font-size="14.00">MyDocument</text>
<polyline fill="none" stroke="black" points="0,-61.5 93,-61.5 "/>
<text text-anchor="start" x="44.5" y="-46.3" font-family="Times,serif" font-size="14.00"> </text>
<polyline fill="none" stroke="black" points="0,-38.5 93,-38.5 "/>
<text text-anchor="start" x="17" y="-23.3" font-family="Times,serif" font-size="14.00">+doRead()</text>
</g>
<!-- MyDocument&#45;&gt;Document -->
<g id="edge1" class="edge">
<title>MyDocument&#45;&gt;Document</title>
<path fill="none" stroke="black" d="M46.5,-84.86C46.5,-98.05 46.5,-113.52 46.5,-128.61"/>
<polygon fill="none" stroke="black" points="43,-128.96 46.5,-138.96 50,-128.96 43,-128.96"/>
</g>
<!-- MyApplication -->
<g id="node4" class="node">
<title>MyApplication</title>
<polygon fill="white" stroke="black" points="180.5,-0.5 180.5,-99.5 344.5,-99.5 344.5,-0.5 180.5,-0.5"/>
<text text-anchor="start" x="220.5" y="-84.3" font-family="Times,serif" font-size="14.00">MyApplication</text>
<polyline fill="none" stroke="black" points="180.5,-76.5 344.5,-76.5 "/>
<text text-anchor="start" x="260.5" y="-61.3" font-family="Times,serif" font-size="14.00"> </text>
<polyline fill="none" stroke="black" points="180.5,-53.5 344.5,-53.5 "/>
<text text-anchor="start" x="200.5" y="-38.3" font-family="Times,serif" font-size="14.00">+doCreateDocument()</text>
<text text-anchor="start" x="201" y="-23.3" font-family="Times,serif" font-size="14.00">+canOpenDocument()</text>
<text text-anchor="start" x="188.5" y="-8.3" font-family="Times,serif" font-size="14.00">+aboutToOpenDocument()</text>
</g>
<!-- MyApplication&#45;&gt;MyDocument -->
<g id="edge3" class="edge">
<title>MyApplication&#45;&gt;MyDocument</title>
<path fill="none" stroke="black" stroke-dasharray="5,2" d="M180.22,-50C154.57,-50 126.86,-50 103.36,-50"/>
<polygon fill="black" stroke="black" points="93.22,-50 103.22,-45.5 98.22,-50 103.22,-50 103.22,-50 103.22,-50 98.22,-50 103.22,-54.5 93.22,-50 93.22,-50"/>
</g>
<!-- MyApplication&#45;&gt;Application -->
<g id="edge2" class="edge">
<title>MyApplication&#45;&gt;Application</title>
<path fill="none" stroke="black" d="M262.5,-99.56C262.5,-106.72 262.5,-114.2 262.5,-121.7"/>
<polygon fill="none" stroke="black" points="259,-121.89 262.5,-131.89 266,-121.89 259,-121.89"/>
</g>
</g>
</svg>
