<?xml version="1.0" encoding="UTF-8" standalone="no"?>
<!DOCTYPE svg PUBLIC "-//W3C//DTD SVG 1.1//EN"
 "http://www.w3.org/Graphics/SVG/1.1/DTD/svg11.dtd">
<!-- Generated by graphviz version 3.0.0 (20220226.1711)
 -->
<!-- Title: hierarchy Pages: 1 -->
<svg width="340pt" height="265pt"
 viewBox="0.00 0.00 340.00 264.50" xmlns="http://www.w3.org/2000/svg" xmlns:xlink="http://www.w3.org/1999/xlink">
<g id="graph0" class="graph" transform="scale(1 1) rotate(0) translate(4 260.5)">
<title>hierarchy</title>
<!-- Document -->
<g id="node1" class="node">
<title>Document</title>
<polygon fill="white" stroke="black" points="10.5,-139 10.5,-249 82.5,-249 82.5,-139 10.5,-139"/>
<text text-anchor="start" x="18.5" y="-234.8" font-family="Times,serif" font-style="italic" font-size="14.00">Document</text>
<polyline fill="none" stroke="black" points="10.5,-226 82.5,-226 "/>
<text text-anchor="start" x="44.5" y="-210.8" font-family="Times,serif" font-size="14.00"> </text>
<polyline fill="none" stroke="black" points="10.5,-203 82.5,-203 "/>
<text text-anchor="start" x="25.5" y="-188.8" font-family="Times,serif" font-size="14.00">+save()</text>
<text text-anchor="start" x="24.5" y="-174.8" font-family="Times,serif" font-size="14.00">+open()</text>
<text text-anchor="start" x="23.5" y="-160.8" font-family="Times,serif" font-size="14.00">+close()</text>
<text text-anchor="start" x="29.5" y="-146.8" font-family="Times,serif" font-style="italic" font-size="14.00">read()</text>
</g>
<!-- Application -->
<g id="node3" class="node">
<title>Application</title>
<polygon fill="white" stroke="black" points="193,-132 193,-256 332,-256 332,-132 193,-132"/>
<text text-anchor="start" x="230.5" y="-241.8" font-family="Times,serif" font-style="italic" font-size="14.00">Application</text>
<polyline fill="none" stroke="black" points="193,-233 332,-233 "/>
<text text-anchor="start" x="260.5" y="-217.8" font-family="Times,serif" font-size="14.00"> </text>
<polyline fill="none" stroke="black" points="193,-210 332,-210 "/>
<text text-anchor="start" x="215.5" y="-195.8" font-family="Times,serif" font-size="14.00">+addDocument()</text>
<text text-anchor="start" x="212" y="-181.8" font-family="Times,serif" font-size="14.00">+openDocument()</text>
<text text-anchor="start" x="208.5" y="-167.8" font-family="Times,serif" font-size="14.00">+</text>
<text text-anchor="start" x="217.5" y="-167.8" font-family="Times,serif" font-style="italic" font-size="14.00">createDocument()</text>
<text text-anchor="start" x="201" y="-153.8" font-family="Times,serif" font-size="14.00">+</text>
<text text-anchor="start" x="210" y="-153.8" font-family="Times,serif" font-style="italic" font-size="14.00">canOpenDocument()</text>
<text text-anchor="start" x="202" y="-139.8" font-family="Times,serif" font-size="14.00">+</text>
<text text-anchor="start" x="211" y="-139.8" font-family="Times,serif" font-style="italic" font-size="14.00">preOpenDocument()</text>
</g>
<!-- Document&#45;&gt;Application -->
<g id="edge4" class="edge">
<title>Document&#45;&gt;Application</title>
<path fill="none" stroke="black" d="M82.65,-194C109.29,-194 146.59,-194 180.32,-194"/>
<polygon fill="none" stroke="black" points="180.56,-194 186.56,-190 192.56,-194 186.56,-198 180.56,-194"/>
<text text-anchor="middle" x="170.56" y="-197.8" font-family="Times,serif" font-size="14.00">docs &#160;&#160;&#160;&#160;</text>
</g>
<!-- MyDocument -->
<g id="node2" class="node">
<title>MyDocument</title>
<polygon fill="white" stroke="black" points="0,-15.5 0,-84.5 93,-84.5 93,-15.5 0,-15.5"/>
<text text-anchor="start" x="8" y="-69.3" font-family="Times,serif" font-size="14.00">MyDocument</text>
<polyline fill="none" stroke="black" points="0,-61.5 93,-61.5 "/>
<text text-anchor="start" x="44.5" y="-46.3" font-family="Times,serif" font-size="14.00"> </text>
<polyline fill="none" stroke="black" points="0,-38.5 93,-38.5 "/>
<text text-anchor="start" x="26" y="-23.3" font-family="Times,serif" font-size="14.00">+read()</text>
</g>
<!-- MyDocument&#45;&gt;Document -->
<g id="edge1" class="edge">
<title>MyDocument&#45;&gt;Document</title>
<path fill="none" stroke="black" d="M46.5,-84.86C46.5,-98.05 46.5,-113.52 46.5,-128.61"/>
<polygon fill="none" stroke="black" points="43,-128.96 46.5,-138.96 50,-128.96 43,-128.96"/>
</g>
<!-- MyApplication -->
<g id="node4" class="node">
<title>MyApplication</title>
<polygon fill="white" stroke="black" points="193,-0.5 193,-99.5 332,-99.5 332,-0.5 193,-0.5"/>
<text text-anchor="start" x="220.5" y="-84.3" font-family="Times,serif" font-size="14.00">MyApplication</text>
<polyline fill="none" stroke="black" points="193,-76.5 332,-76.5 "/>
<text text-anchor="start" x="260.5" y="-61.3" font-family="Times,serif" font-size="14.00"> </text>
<polyline fill="none" stroke="black" points="193,-53.5 332,-53.5 "/>
<text text-anchor="start" x="209" y="-38.3" font-family="Times,serif" font-size="14.00">+createDocument()</text>
<text text-anchor="start" x="201" y="-23.3" font-family="Times,serif" font-size="14.00">+canOpenDocument()</text>
<text text-anchor="start" x="202" y="-8.3" font-family="Times,serif" font-size="14.00">+preOpenDocument()</text>
</g>
<!-- MyApplication&#45;&gt;MyDocument -->
<g id="edge3" class="edge">
<title>MyApplication&#45;&gt;MyDocument</title>
<path fill="none" stroke="black" stroke-dasharray="5,2" d="M192.97,-50C163.99,-50 130.76,-50 103.28,-50"/>
<polygon fill="black" stroke="black" points="93.06,-50 103.06,-45.5 98.06,-50 103.06,-50 103.06,-50 103.06,-50 98.06,-50 103.06,-54.5 93.06,-50 93.06,-50"/>
</g>
<!-- MyApplication&#45;&gt;Application -->
<g id="edge2" class="edge">
<title>MyApplication&#45;&gt;Application</title>
<path fill="none" stroke="black" d="M262.5,-99.56C262.5,-106.72 262.5,-114.2 262.5,-121.7"/>
<polygon fill="none" stroke="black" points="259,-121.89 262.5,-131.89 266,-121.89 259,-121.89"/>
</g>
</g>
</svg>
