<?xml version="1.0" encoding="UTF-8" standalone="no"?>
<!DOCTYPE svg PUBLIC "-//W3C//DTD SVG 1.1//EN"
 "http://www.w3.org/Graphics/SVG/1.1/DTD/svg11.dtd">
<!-- Generated by graphviz version 3.0.0 (20220226.1711)
 -->
<!-- Title: hierarchy Pages: 1 -->
<svg width="360pt" height="231pt"
 viewBox="0.00 0.00 360.00 230.90" xmlns="http://www.w3.org/2000/svg" xmlns:xlink="http://www.w3.org/1999/xlink">
<g id="graph0" class="graph" transform="scale(0.512091 0.512091) rotate(0) translate(4 446.9)">
<title>hierarchy</title>
<!-- Client -->
<g id="node1" class="node">
<title>Client</title>
<polygon fill="white" stroke="black" points="354.1,-406.4 354.1,-442.4 408.1,-442.4 408.1,-406.4 354.1,-406.4"/>
<text text-anchor="start" x="363.6" y="-420.7" font-family="Arial" font-size="14.00">Client</text>
</g>
<!-- Spacer -->
<g id="node10" class="node">
<title>Spacer</title>
<ellipse fill="black" stroke="black" cx="71.5" cy="-424.4" rx="1.8" ry="1.8"/>
</g>
<!-- Client&#45;&gt;Spacer -->
<g id="edge10" class="edge">
<title>Client&#45;&gt;Spacer</title>
<path fill="none" stroke="black" d="M353.9,-424.4C282.48,-424.4 93.73,-424.4 73.3,-424.4"/>
</g>
<!-- Spacer2 -->
<g id="node11" class="node">
<title>Spacer2</title>
<ellipse fill="black" stroke="black" cx="647.5" cy="-424.4" rx="1.8" ry="1.8"/>
</g>
<!-- Client&#45;&gt;Spacer2 -->
<g id="edge12" class="edge">
<title>Client&#45;&gt;Spacer2</title>
<path fill="none" stroke="black" d="M408.11,-424.4C471.6,-424.4 626.45,-424.4 645.56,-424.4"/>
</g>
<!-- Figure -->
<g id="node2" class="node">
<title>Figure</title>
<polygon fill="white" stroke="black" points="0,-159.5 0,-228.5 143,-228.5 143,-159.5 0,-159.5"/>
<text text-anchor="start" x="52" y="-214.3" font-family="Arial" font-style="italic" font-size="14.00">Figure</text>
<polyline fill="none" stroke="black" points="0,-205.5 143,-205.5 "/>
<text text-anchor="start" x="69.5" y="-190.3" font-family="Arial" font-size="14.00"> </text>
<polyline fill="none" stroke="black" points="0,-182.5 143,-182.5 "/>
<text text-anchor="start" x="8" y="-168.3" font-family="Arial" font-style="italic" font-size="14.00">+createManipulator()</text>
</g>
<!-- LineFigure -->
<g id="node3" class="node">
<title>LineFigure</title>
<polygon fill="white" stroke="black" points="216,-303.5 216,-372.5 359,-372.5 359,-303.5 216,-303.5"/>
<text text-anchor="start" x="255.5" y="-357.3" font-family="Arial" font-size="14.00">LineFigure</text>
<polyline fill="none" stroke="black" points="216,-349.5 359,-349.5 "/>
<text text-anchor="start" x="285.5" y="-334.3" font-family="Arial" font-size="14.00"> </text>
<polyline fill="none" stroke="black" points="216,-326.5 359,-326.5 "/>
<text text-anchor="start" x="224" y="-311.3" font-family="Arial" font-size="14.00">+createManipulator()</text>
</g>
<!-- LineFigure&#45;&gt;Figure -->
<g id="edge1" class="edge">
<title>LineFigure:w&#45;&gt;Figure:ne</title>
<path fill="none" stroke="black" d="M215.5,-338C215.5,-338 166.12,-263.25 149.15,-237.55"/>
<polygon fill="none" stroke="black" points="151.93,-235.41 143.5,-229 146.09,-239.27 151.93,-235.41"/>
</g>
<!-- LineManipulator -->
<g id="node7" class="node">
<title>LineManipulator</title>
<polygon fill="white" stroke="black" points="411,-288.5 411,-387.5 524,-387.5 524,-288.5 411,-288.5"/>
<text text-anchor="start" x="419" y="-372.3" font-family="Arial" font-size="14.00">LineManipulator</text>
<polyline fill="none" stroke="black" points="411,-364.5 524,-364.5 "/>
<text text-anchor="start" x="465.5" y="-349.3" font-family="Arial" font-size="14.00"> </text>
<polyline fill="none" stroke="black" points="411,-341.5 524,-341.5 "/>
<text text-anchor="start" x="428" y="-326.3" font-family="Arial" font-size="14.00">+downClick()</text>
<text text-anchor="start" x="445" y="-311.3" font-family="Arial" font-size="14.00">+drag()</text>
<text text-anchor="start" x="436.5" y="-296.3" font-family="Arial" font-size="14.00">+upClick()</text>
</g>
<!-- LineFigure&#45;&gt;LineManipulator -->
<g id="edge7" class="edge">
<title>LineFigure&#45;&gt;LineManipulator</title>
<path fill="none" stroke="black" stroke-dasharray="5,2" d="M359.16,-338C372.83,-338 387.09,-338 400.61,-338"/>
<polygon fill="black" stroke="black" points="410.78,-338 400.78,-342.5 405.78,-338 400.78,-338 400.78,-338 400.78,-338 405.78,-338 400.78,-333.5 410.78,-338 410.78,-338"/>
</g>
<!-- TextFigure -->
<g id="node4" class="node">
<title>TextFigure</title>
<polygon fill="white" stroke="black" points="216,-159.5 216,-228.5 359,-228.5 359,-159.5 216,-159.5"/>
<text text-anchor="start" x="255.5" y="-213.3" font-family="Arial" font-size="14.00">TextFigure</text>
<polyline fill="none" stroke="black" points="216,-205.5 359,-205.5 "/>
<text text-anchor="start" x="285.5" y="-190.3" font-family="Arial" font-size="14.00"> </text>
<polyline fill="none" stroke="black" points="216,-182.5 359,-182.5 "/>
<text text-anchor="start" x="224" y="-167.3" font-family="Arial" font-size="14.00">+createManipulator()</text>
</g>
<!-- TextFigure&#45;&gt;Figure -->
<g id="edge2" class="edge">
<title>TextFigure&#45;&gt;Figure</title>
<path fill="none" stroke="black" d="M215.88,-194C195.91,-194 174.08,-194 153.57,-194"/>
<polygon fill="none" stroke="black" points="153.3,-190.5 143.3,-194 153.3,-197.5 153.3,-190.5"/>
</g>
<!-- TextManipulator -->
<g id="node8" class="node">
<title>TextManipulator</title>
<polygon fill="white" stroke="black" points="411,-144.5 411,-243.5 524,-243.5 524,-144.5 411,-144.5"/>
<text text-anchor="start" x="419" y="-228.3" font-family="Arial" font-size="14.00">TextManipulator</text>
<polyline fill="none" stroke="black" points="411,-220.5 524,-220.5 "/>
<text text-anchor="start" x="465.5" y="-205.3" font-family="Arial" font-size="14.00"> </text>
<polyline fill="none" stroke="black" points="411,-197.5 524,-197.5 "/>
<text text-anchor="start" x="428" y="-182.3" font-family="Arial" font-size="14.00">+downClick()</text>
<text text-anchor="start" x="445" y="-167.3" font-family="Arial" font-size="14.00">+drag()</text>
<text text-anchor="start" x="436.5" y="-152.3" font-family="Arial" font-size="14.00">+upClick()</text>
</g>
<!-- TextFigure&#45;&gt;TextManipulator -->
<g id="edge8" class="edge">
<title>TextFigure&#45;&gt;TextManipulator</title>
<path fill="none" stroke="black" stroke-dasharray="5,2" d="M359.16,-194C372.83,-194 387.09,-194 400.61,-194"/>
<polygon fill="black" stroke="black" points="410.78,-194 400.78,-198.5 405.78,-194 400.78,-194 400.78,-194 400.78,-194 405.78,-194 400.78,-189.5 410.78,-194 410.78,-194"/>
</g>
<!-- NewFigure -->
<g id="node5" class="node">
<title>NewFigure</title>
<polygon fill="white" stroke="black" points="216,-15.5 216,-84.5 359,-84.5 359,-15.5 216,-15.5"/>
<text text-anchor="start" x="281.5" y="-69.3" font-family="Arial" font-size="14.00">...</text>
<polyline fill="none" stroke="black" points="216,-61.5 359,-61.5 "/>
<text text-anchor="start" x="285.5" y="-46.3" font-family="Arial" font-size="14.00"> </text>
<polyline fill="none" stroke="black" points="216,-38.5 359,-38.5 "/>
<text text-anchor="start" x="224" y="-23.3" font-family="Arial" font-size="14.00">+createManipulator()</text>
</g>
<!-- NewFigure&#45;&gt;Figure -->
<g id="edge3" class="edge">
<title>NewFigure:w&#45;&gt;Figure:se</title>
<path fill="none" stroke="black" d="M215.5,-50C215.5,-50 166.12,-124.75 149.15,-150.45"/>
<polygon fill="none" stroke="black" points="146.09,-148.73 143.5,-159 151.93,-152.59 146.09,-148.73"/>
</g>
<!-- NewManipulator -->
<g id="node9" class="node">
<title>NewManipulator</title>
<polygon fill="white" stroke="black" points="420,-0.5 420,-99.5 515,-99.5 515,-0.5 420,-0.5"/>
<text text-anchor="start" x="461.5" y="-84.3" font-family="Arial" font-size="14.00">...</text>
<polyline fill="none" stroke="black" points="420,-76.5 515,-76.5 "/>
<text text-anchor="start" x="465.5" y="-61.3" font-family="Arial" font-size="14.00"> </text>
<polyline fill="none" stroke="black" points="420,-53.5 515,-53.5 "/>
<text text-anchor="start" x="428" y="-38.3" font-family="Arial" font-size="14.00">+downClick()</text>
<text text-anchor="start" x="445" y="-23.3" font-family="Arial" font-size="14.00">+drag()</text>
<text text-anchor="start" x="436.5" y="-8.3" font-family="Arial" font-size="14.00">+upClick()</text>
</g>
<!-- NewFigure&#45;&gt;NewManipulator -->
<g id="edge9" class="edge">
<title>NewFigure&#45;&gt;NewManipulator</title>
<path fill="none" stroke="black" stroke-dasharray="5,2" d="M359.16,-50C375.89,-50 393.5,-50 409.54,-50"/>
<polygon fill="black" stroke="black" points="419.84,-50 409.84,-54.5 414.84,-50 409.84,-50 409.84,-50 409.84,-50 414.84,-50 409.84,-45.5 419.84,-50 419.84,-50"/>
</g>
<!-- Manipulator -->
<g id="node6" class="node">
<title>Manipulator</title>
<polygon fill="white" stroke="black" points="600,-146 600,-242 695,-242 695,-146 600,-146"/>
<text text-anchor="start" x="611.5" y="-227.8" font-family="Arial" font-style="italic" font-size="14.00">Manipulator</text>
<polyline fill="none" stroke="black" points="600,-219 695,-219 "/>
<text text-anchor="start" x="645.5" y="-203.8" font-family="Arial" font-size="14.00"> </text>
<polyline fill="none" stroke="black" points="600,-196 695,-196 "/>
<text text-anchor="start" x="608" y="-181.8" font-family="Arial" font-style="italic" font-size="14.00">+downClick()</text>
<text text-anchor="start" x="625" y="-167.8" font-family="Arial" font-style="italic" font-size="14.00">+drag()</text>
<text text-anchor="start" x="616.5" y="-153.8" font-family="Arial" font-style="italic" font-size="14.00">+upClick()</text>
</g>
<!-- LineManipulator&#45;&gt;Manipulator -->
<g id="edge4" class="edge">
<title>LineManipulator:e&#45;&gt;Manipulator:nw</title>
<path fill="none" stroke="black" d="M524.5,-338C524.5,-338 574.97,-273.4 593.11,-250.18"/>
<polygon fill="none" stroke="black" points="596.1,-252.04 599.5,-242 590.59,-247.73 596.1,-252.04"/>
</g>
<!-- TextManipulator&#45;&gt;Manipulator -->
<g id="edge5" class="edge">
<title>TextManipulator:e&#45;&gt;Manipulator</title>
<path fill="none" stroke="black" d="M524.5,-194C524.5,-194 557.75,-194 589.67,-194"/>
<polygon fill="none" stroke="black" points="589.95,-197.5 599.94,-194 589.94,-190.5 589.95,-197.5"/>
</g>
<!-- NewManipulator&#45;&gt;Manipulator -->
<g id="edge6" class="edge">
<title>NewManipulator:e&#45;&gt;Manipulator:sw</title>
<path fill="none" stroke="black" d="M515.5,-50C515.5,-50 573.11,-115.84 592.91,-138.47"/>
<polygon fill="none" stroke="black" points="590.28,-140.78 599.5,-146 595.55,-136.17 590.28,-140.78"/>
</g>
<!-- Spacer&#45;&gt;Figure -->
<g id="edge11" class="edge">
<title>Spacer&#45;&gt;Figure</title>
<path fill="none" stroke="black" d="M71.5,-422.41C71.5,-406.65 71.5,-301.1 71.5,-239.15"/>
<polygon fill="black" stroke="black" points="71.5,-228.86 76,-238.86 71.5,-233.86 71.5,-238.86 71.5,-238.86 71.5,-238.86 71.5,-233.86 67,-238.86 71.5,-228.86 71.5,-228.86"/>
</g>
<!-- Spacer2&#45;&gt;Manipulator -->
<g id="edge13" class="edge">
<title>Spacer2&#45;&gt;Manipulator</title>
<path fill="none" stroke="black" d="M647.5,-422.41C647.5,-407.72 647.5,-315.04 647.5,-252.35"/>
<polygon fill="black" stroke="black" points="647.5,-242.17 652,-252.17 647.5,-247.17 647.5,-252.17 647.5,-252.17 647.5,-252.17 647.5,-247.17 643,-252.17 647.5,-242.17 647.5,-242.17"/>
</g>
<!-- note -->
<g id="node12" class="node">
<title>note</title>
<polygon fill="white" stroke="black" points="353,-291.2 216,-291.2 216,-255.2 359,-255.2 359,-285.2 353,-291.2"/>
<polyline fill="none" stroke="black" points="353,-291.2 353,-285.2 "/>
<polyline fill="none" stroke="black" points="359,-285.2 353,-285.2 "/>
<text text-anchor="start" x="224" y="-270.7" font-family="Arial" font-size="10.00">return new LineManipulator();</text>
</g>
<!-- note&#45;&gt;LineFigure -->
<g id="edge14" class="edge">
<title>note&#45;&gt;LineFigure</title>
<path fill="none" stroke="black" stroke-dasharray="5,2" d="M287.5,-291.25C287.5,-295 287.5,-299.06 287.5,-303.18"/>
</g>
<!-- note2 -->
<g id="node13" class="node">
<title>note2</title>
<polygon fill="white" stroke="black" points="353,-147.2 216,-147.2 216,-111.2 359,-111.2 359,-141.2 353,-147.2"/>
<polyline fill="none" stroke="black" points="353,-147.2 353,-141.2 "/>
<polyline fill="none" stroke="black" points="359,-141.2 353,-141.2 "/>
<text text-anchor="start" x="224" y="-126.7" font-family="Arial" font-size="10.00">return new TextManipulator();</text>
</g>
<!-- note2&#45;&gt;TextFigure -->
<g id="edge15" class="edge">
<title>note2&#45;&gt;TextFigure</title>
<path fill="none" stroke="black" stroke-dasharray="5,2" d="M287.5,-147.25C287.5,-151 287.5,-155.06 287.5,-159.18"/>
</g>
</g>
</svg>
