<?xml version="1.0" encoding="UTF-8" standalone="no"?>
<!DOCTYPE svg PUBLIC "-//W3C//DTD SVG 1.1//EN"
 "http://www.w3.org/Graphics/SVG/1.1/DTD/svg11.dtd">
<!-- Generated by graphviz version 3.0.0 (20220226.1711)
 -->
<!-- Title: hierarchy Pages: 1 -->
<svg width="360pt" height="178pt"
 viewBox="0.00 0.00 360.00 178.03" xmlns="http://www.w3.org/2000/svg" xmlns:xlink="http://www.w3.org/1999/xlink">
<g id="graph0" class="graph" transform="scale(0.745218 0.745218) rotate(0) translate(4 234.9)">
<title>hierarchy</title>
<!-- Product -->
<g id="node1" class="node">
<title>Product</title>
<polygon fill="white" stroke="black" points="27.5,-194.4 27.5,-230.4 90.5,-230.4 90.5,-194.4 27.5,-194.4"/>
<text text-anchor="start" x="35.5" y="-209.7" font-family="Arial" font-style="italic" font-size="14.00">Product</text>
</g>
<!-- ConcreteProduct -->
<g id="node2" class="node">
<title>ConcreteProduct</title>
<polygon fill="white" stroke="black" points="0,-25.2 0,-61.2 118,-61.2 118,-25.2 0,-25.2"/>
<text text-anchor="start" x="8" y="-39.5" font-family="Arial" font-size="14.00">ConcreteProduct</text>
</g>
<!-- ConcreteProduct&#45;&gt;Product -->
<g id="edge1" class="edge">
<title>ConcreteProduct&#45;&gt;Product</title>
<path fill="none" stroke="black" d="M59,-61.31C59,-90.74 59,-149.19 59,-184.14"/>
<polygon fill="none" stroke="black" points="55.5,-184.17 59,-194.17 62.5,-184.17 55.5,-184.17"/>
</g>
<!-- Creator -->
<g id="node3" class="node">
<title>Creator</title>
<polygon fill="white" stroke="black" points="143,-146.2 143,-228.2 263,-228.2 263,-146.2 143,-146.2"/>
<text text-anchor="start" x="180" y="-214" font-family="Arial" font-style="italic" font-size="14.00">Creator</text>
<polyline fill="none" stroke="black" points="143,-205.2 263,-205.2 "/>
<text text-anchor="start" x="201" y="-190" font-family="Arial" font-size="14.00"> </text>
<polyline fill="none" stroke="black" points="143,-182.2 263,-182.2 "/>
<text text-anchor="start" x="151" y="-168" font-family="Arial" font-style="italic" font-size="14.00">+factoryMethod()</text>
<text text-anchor="start" x="166" y="-154" font-family="Arial" font-size="14.00">+operation()</text>
</g>
<!-- ConcreteCreator -->
<g id="node4" class="node">
<title>ConcreteCreator</title>
<polygon fill="white" stroke="black" points="143,-8.7 143,-77.7 263,-77.7 263,-8.7 143,-8.7"/>
<text text-anchor="start" x="153" y="-62.5" font-family="Arial" font-size="14.00">ConcreteCreator</text>
<polyline fill="none" stroke="black" points="143,-54.7 263,-54.7 "/>
<text text-anchor="start" x="201" y="-39.5" font-family="Arial" font-size="14.00"> </text>
<polyline fill="none" stroke="black" points="143,-31.7 263,-31.7 "/>
<text text-anchor="start" x="151" y="-16.5" font-family="Arial" font-size="14.00">+factoryMethod()</text>
</g>
<!-- ConcreteCreator&#45;&gt;ConcreteProduct -->
<g id="edge3" class="edge">
<title>ConcreteCreator&#45;&gt;ConcreteProduct</title>
<path fill="none" stroke="black" stroke-dasharray="5,2" d="M142.77,-43.2C137.91,-43.2 132.99,-43.2 128.09,-43.2"/>
<polygon fill="black" stroke="black" points="118.07,-43.2 128.07,-38.7 123.07,-43.2 128.07,-43.2 128.07,-43.2 128.07,-43.2 123.07,-43.2 128.07,-47.7 118.07,-43.2 118.07,-43.2"/>
</g>
<!-- ConcreteCreator&#45;&gt;Creator -->
<g id="edge2" class="edge">
<title>ConcreteCreator&#45;&gt;Creator</title>
<path fill="none" stroke="black" d="M203,-78.06C203,-95.42 203,-116.74 203,-135.92"/>
<polygon fill="none" stroke="black" points="199.5,-136.01 203,-146.01 206.5,-136.01 199.5,-136.01"/>
</g>
<!-- note -->
<g id="node5" class="node">
<title>note</title>
<polygon fill="white" stroke="black" points="447,-172.8 313,-172.8 313,-136.8 453,-136.8 453,-166.8 447,-172.8"/>
<polyline fill="none" stroke="black" points="447,-172.8 447,-166.8 "/>
<polyline fill="none" stroke="black" points="453,-166.8 447,-166.8 "/>
<text text-anchor="start" x="321" y="-153" font-family="Arial" font-size="11.00">record = </text>
<text text-anchor="start" x="365" y="-153" font-family="Arial" font-style="italic" font-size="11.00">factoryMethod()</text>
<text text-anchor="start" x="441" y="-153" font-family="Arial" font-size="11.00">;</text>
</g>
<!-- Spacer -->
<!-- note&#45;&gt;Spacer -->
<g id="edge4" class="edge">
<title>note&#45;&gt;Spacer:w</title>
<path fill="none" stroke="black" stroke-dasharray="5,2" d="M312.89,-154.8C278.51,-154.8 244.4,-154.8 244.4,-154.8"/>
</g>
<!-- note2 -->
<g id="node7" class="node">
<title>note2</title>
<polygon fill="white" stroke="black" points="469.08,-36 311.08,-36 311.08,0 475.08,0 475.08,-30 469.08,-36"/>
<polyline fill="none" stroke="black" points="469.08,-36 469.08,-30 "/>
<polyline fill="none" stroke="black" points="475.08,-30 469.08,-30 "/>
<text text-anchor="start" x="319.08" y="-15.2" font-family="Arial" font-size="11.00">return new ConcreteProduct();</text>
</g>
<!-- Spacer2 -->
<!-- note2&#45;&gt;Spacer2 -->
<g id="edge5" class="edge">
<title>note2&#45;&gt;Spacer2:w</title>
<path fill="none" stroke="black" stroke-dasharray="5,2" d="M310.72,-18C282.92,-18 258.8,-18 258.8,-18"/>
</g>
</g>
</svg>
