<?xml version="1.0" encoding="UTF-8" standalone="no"?>
<!DOCTYPE svg PUBLIC "-//W3C//DTD SVG 1.1//EN"
 "http://www.w3.org/Graphics/SVG/1.1/DTD/svg11.dtd">
<!-- Generated by graphviz version 3.0.0 (20220226.1711)
 -->
<!-- Title: diagram Pages: 1 -->
<svg width="375pt" height="118pt"
 viewBox="0.00 0.00 374.50 118.00" xmlns="http://www.w3.org/2000/svg" xmlns:xlink="http://www.w3.org/1999/xlink">
<g id="graph0" class="graph" transform="scale(1 1) rotate(0) translate(4 114)">
<title>diagram</title>
<!-- Singleton -->
<g id="node1" class="node">
<title>Singleton</title>
<polygon fill="white" stroke="black" points="0,-0.5 0,-109.5 184,-109.5 184,-0.5 0,-0.5"/>
<text text-anchor="start" x="66" y="-94.3" font-family="Times,serif" font-size="14.00">Singleton</text>
<polyline fill="none" stroke="black" points="0,-86.5 184,-86.5 "/>
<text text-anchor="start" x="14" y="-72.3" font-family="Times,serif" font-size="14.00">&#45;</text>
<text text-anchor="start" x="19" y="-72.3" font-family="Times,serif" text-decoration="underline" font-size="14.00">uniqueInstance</text>
<text text-anchor="start" x="101" y="-72.3" font-family="Times,serif" font-size="14.00"> ():Singleton</text>
<text text-anchor="start" x="52" y="-58.3" font-family="Times,serif" font-size="14.00">&#45;singletonData</text>
<polyline fill="none" stroke="black" points="0,-50.5 184,-50.5 "/>
<text text-anchor="start" x="9.5" y="-36.3" font-family="Times,serif" font-size="14.00">+</text>
<text text-anchor="start" x="18.5" y="-36.3" font-family="Times,serif" text-decoration="underline" font-size="14.00">instance</text>
<text text-anchor="start" x="63.5" y="-36.3" font-family="Times,serif" font-size="14.00">():Singleton «static»</text>
<text text-anchor="start" x="8" y="-22.3" font-family="Times,serif" font-size="14.00">+singletonInstance():Singleton</text>
<text text-anchor="start" x="36" y="-8.3" font-family="Times,serif" font-size="14.00">+getSingletonData()</text>
</g>
<!-- note1 -->
<g id="node2" class="node">
<title>note1</title>
<polygon fill="white" stroke="black" points="360.5,-75.5 249.5,-75.5 249.5,-34.5 366.5,-34.5 366.5,-69.5 360.5,-75.5"/>
<polyline fill="none" stroke="black" points="360.5,-75.5 360.5,-69.5 "/>
<polyline fill="none" stroke="black" points="366.5,-69.5 360.5,-69.5 "/>
<text text-anchor="start" x="257.5" y="-63.5" font-family="Times,serif" font-size="10.00">instance() {</text>
<text text-anchor="middle" x="308" y="-52.5" font-family="Times,serif" font-size="10.00"> &#160;&#160;&#160;return uniqueInstance;</text>
<text text-anchor="start" x="257.5" y="-41.5" font-family="Times,serif" font-size="10.00">}</text>
</g>
<!-- Singleton&#45;&gt;note1 -->
<g id="edge1" class="edge">
<title>Singleton:e&#45;&gt;note1:w</title>
<path fill="none" stroke="black" stroke-dasharray="5,2" d="M184,-55C184,-55 249,-55 249,-55"/>
</g>
</g>
</svg>
