<?xml version="1.0" encoding="UTF-8" standalone="no"?>
<!DOCTYPE svg PUBLIC "-//W3C//DTD SVG 1.1//EN"
 "http://www.w3.org/Graphics/SVG/1.1/DTD/svg11.dtd">
<!-- Generated by graphviz version 3.0.0 (20220226.1711)
 -->
<!-- Title: hierarchy Pages: 1 -->
<svg width="360pt" height="180pt"
 viewBox="0.00 0.00 360.00 180.17" xmlns="http://www.w3.org/2000/svg" xmlns:xlink="http://www.w3.org/1999/xlink">
<g id="graph0" class="graph" transform="scale(0.83877 0.83877) rotate(0) translate(4 210.8)">
<title>hierarchy</title>
<!-- Target -->
<g id="node1" class="node">
<title>Target</title>
<polygon fill="white" stroke="black" points="97.5,-137.3 97.5,-206.3 172.5,-206.3 172.5,-137.3 97.5,-137.3"/>
<text text-anchor="start" x="117" y="-192.1" font-family="Times,serif" font-style="italic" font-size="14.00">Target</text>
<polyline fill="none" stroke="black" points="97.5,-183.3 172.5,-183.3 "/>
<text text-anchor="start" x="133" y="-168.1" font-family="Times,serif" font-size="14.00"> </text>
<polyline fill="none" stroke="black" points="97.5,-160.3 172.5,-160.3 "/>
<text text-anchor="start" x="105.5" y="-146.1" font-family="Times,serif" font-style="italic" font-size="14.00">+request()</text>
</g>
<!-- Adapter -->
<g id="node2" class="node">
<title>Adapter</title>
<polygon fill="white" stroke="black" points="170.5,-0.5 170.5,-69.5 243.5,-69.5 243.5,-0.5 170.5,-0.5"/>
<text text-anchor="start" x="185" y="-54.3" font-family="Times,serif" font-size="14.00">Adapter</text>
<polyline fill="none" stroke="black" points="170.5,-46.5 243.5,-46.5 "/>
<text text-anchor="start" x="205" y="-31.3" font-family="Times,serif" font-size="14.00"> </text>
<polyline fill="none" stroke="black" points="170.5,-23.5 243.5,-23.5 "/>
<text text-anchor="start" x="178.5" y="-8.3" font-family="Times,serif" font-size="14.00">+request()</text>
</g>
<!-- Adapter&#45;&gt;Target -->
<g id="edge2" class="edge">
<title>Adapter&#45;&gt;Target</title>
<path fill="none" stroke="black" d="M188.83,-69.52C179.45,-87.34 167.91,-109.27 157.92,-128.24"/>
<polygon fill="none" stroke="black" points="154.72,-126.81 153.16,-137.29 160.92,-130.07 154.72,-126.81"/>
</g>
<!-- Adaptee -->
<g id="node3" class="node">
<title>Adaptee</title>
<polygon fill="white" stroke="black" points="219.5,-137.3 219.5,-206.3 338.5,-206.3 338.5,-137.3 219.5,-137.3"/>
<text text-anchor="start" x="256" y="-191.1" font-family="Times,serif" font-size="14.00">Adaptee</text>
<polyline fill="none" stroke="black" points="219.5,-183.3 338.5,-183.3 "/>
<text text-anchor="start" x="277" y="-168.1" font-family="Times,serif" font-size="14.00"> </text>
<polyline fill="none" stroke="black" points="219.5,-160.3 338.5,-160.3 "/>
<text text-anchor="start" x="227.5" y="-145.1" font-family="Times,serif" font-size="14.00">+specificRequest()</text>
</g>
<!-- Adapter&#45;&gt;Adaptee -->
<g id="edge3" class="edge">
<title>Adapter&#45;&gt;Adaptee</title>
<path fill="none" stroke="black" d="M225.17,-69.52C234.55,-87.34 246.09,-109.27 256.08,-128.24"/>
<polygon fill="none" stroke="black" points="253.08,-130.07 260.84,-137.29 259.28,-126.81 253.08,-130.07"/>
</g>
<!-- Client -->
<g id="node4" class="node">
<title>Client</title>
<polygon fill="white" stroke="black" points="0,-153.8 0,-189.8 54,-189.8 54,-153.8 0,-153.8"/>
<text text-anchor="middle" x="27" y="-168.1" font-family="Times,serif" font-size="14.00">Client</text>
</g>
<!-- Client&#45;&gt;Target -->
<g id="edge1" class="edge">
<title>Client&#45;&gt;Target</title>
<path fill="none" stroke="black" d="M54.25,-171.8C64.2,-171.8 75.78,-171.8 87,-171.8"/>
<polygon fill="black" stroke="black" points="87.15,-175.3 97.15,-171.8 87.15,-168.3 87.15,-175.3"/>
</g>
<!-- Spacer -->
<!-- note2 -->
<g id="node6" class="node">
<title>note2</title>
<polygon fill="white" stroke="black" points="397,-55.5 299,-55.5 299,-14.5 403,-14.5 403,-49.5 397,-55.5"/>
<polyline fill="none" stroke="black" points="397,-55.5 397,-49.5 "/>
<polyline fill="none" stroke="black" points="403,-49.5 397,-49.5 "/>
<text text-anchor="start" x="307" y="-43.5" font-family="Times,serif" font-size="10.00">request() {</text>
<text text-anchor="start" x="307" y="-32.5" font-family="Times,serif" font-size="10.00"> &#160;&#160;&#160;&#160;&#160;specificRequest();</text>
<text text-anchor="start" x="307" y="-21.5" font-family="Times,serif" font-size="10.00">}</text>
</g>
<!-- note2&#45;&gt;Adapter -->
<g id="edge4" class="edge">
<title>note2&#45;&gt;Adapter</title>
<path fill="none" stroke="black" stroke-dasharray="5,2" d="M298.61,-35C280.43,-35 260.45,-35 243.8,-35"/>
</g>
</g>
</svg>
