<?xml version="1.0" encoding="UTF-8" standalone="no"?>
<!DOCTYPE svg PUBLIC "-//W3C//DTD SVG 1.1//EN"
 "http://www.w3.org/Graphics/SVG/1.1/DTD/svg11.dtd">
<!-- Generated by graphviz version 3.0.0 (20220226.1711)
 -->
<!-- Title: hierarchy Pages: 1 -->
<svg width="360pt" height="160pt"
 viewBox="0.00 0.00 360.00 159.58" xmlns="http://www.w3.org/2000/svg" xmlns:xlink="http://www.w3.org/1999/xlink">
<g id="graph0" class="graph" transform="scale(0.636042 0.636042) rotate(0) translate(4 246.9)">
<title>hierarchy</title>
<!-- Shape -->
<g id="node1" class="node">
<title>Shape</title>
<polygon fill="white" stroke="black" points="160,-160.4 160,-242.4 298,-242.4 298,-160.4 160,-160.4"/>
<text text-anchor="start" x="212" y="-228.2" font-family="Times,serif" font-style="italic" font-size="14.00">Shape</text>
<polyline fill="none" stroke="black" points="160,-219.4 298,-219.4 "/>
<text text-anchor="start" x="227" y="-204.2" font-family="Times,serif" font-size="14.00"> </text>
<polyline fill="none" stroke="black" points="160,-196.4 298,-196.4 "/>
<text text-anchor="start" x="183.5" y="-182.2" font-family="Times,serif" font-style="italic" font-size="14.00">+boundingBox()</text>
<text text-anchor="start" x="168" y="-168.2" font-family="Times,serif" font-style="italic" font-size="14.00">+createManipulator()</text>
</g>
<!-- Line -->
<g id="node2" class="node">
<title>Line</title>
<polygon fill="white" stroke="black" points="90,-22.6 90,-106.6 224,-106.6 224,-22.6 90,-22.6"/>
<text text-anchor="start" x="144.5" y="-91.4" font-family="Times,serif" font-size="14.00">Line</text>
<polyline fill="none" stroke="black" points="90,-83.6 224,-83.6 "/>
<text text-anchor="start" x="155" y="-68.4" font-family="Times,serif" font-size="14.00"> </text>
<polyline fill="none" stroke="black" points="90,-60.6 224,-60.6 "/>
<text text-anchor="start" x="111.5" y="-45.4" font-family="Times,serif" font-size="14.00">+boundingBox()</text>
<text text-anchor="start" x="98" y="-30.4" font-family="Times,serif" font-size="14.00">+createManipulator()</text>
</g>
<!-- Line&#45;&gt;Shape -->
<g id="edge3" class="edge">
<title>Line&#45;&gt;Shape</title>
<path fill="none" stroke="black" d="M179.19,-106.76C186.58,-120.8 194.89,-136.59 202.57,-151.18"/>
<polygon fill="none" stroke="black" points="199.5,-152.86 207.25,-160.08 205.69,-149.6 199.5,-152.86"/>
</g>
<!-- TextShape -->
<g id="node3" class="node">
<title>TextShape</title>
<polygon fill="white" stroke="black" points="248.4,-22.6 248.4,-106.6 382.4,-106.6 382.4,-22.6 248.4,-22.6"/>
<text text-anchor="start" x="286.4" y="-91.4" font-family="Times,serif" font-size="14.00">TextShape</text>
<polyline fill="none" stroke="black" points="248.4,-83.6 382.4,-83.6 "/>
<text text-anchor="start" x="313.4" y="-68.4" font-family="Times,serif" font-size="14.00"> </text>
<polyline fill="none" stroke="black" points="248.4,-60.6 382.4,-60.6 "/>
<text text-anchor="start" x="269.9" y="-45.4" font-family="Times,serif" font-size="14.00">+boundingBox()</text>
<text text-anchor="start" x="256.4" y="-30.4" font-family="Times,serif" font-size="14.00">+createManipulator()</text>
</g>
<!-- TextShape&#45;&gt;Shape -->
<g id="edge4" class="edge">
<title>TextShape&#45;&gt;Shape</title>
<path fill="none" stroke="black" d="M288.77,-106.76C279.82,-120.94 269.75,-136.88 260.46,-151.59"/>
<polygon fill="none" stroke="black" points="257.48,-149.76 255.09,-160.08 263.39,-153.5 257.48,-149.76"/>
</g>
<!-- TextView -->
<g id="node4" class="node">
<title>TextView</title>
<polygon fill="white" stroke="black" points="438,-166.9 438,-235.9 524,-235.9 524,-166.9 438,-166.9"/>
<text text-anchor="start" x="454.5" y="-220.7" font-family="Times,serif" font-size="14.00">TextView</text>
<polyline fill="none" stroke="black" points="438,-212.9 524,-212.9 "/>
<text text-anchor="start" x="479" y="-197.7" font-family="Times,serif" font-size="14.00"> </text>
<polyline fill="none" stroke="black" points="438,-189.9 524,-189.9 "/>
<text text-anchor="start" x="446" y="-174.7" font-family="Times,serif" font-size="14.00">+getExtent()</text>
</g>
<!-- TextShape&#45;&gt;TextView -->
<g id="edge2" class="edge">
<title>TextShape&#45;&gt;TextView:s</title>
<path fill="none" stroke="black" d="M382.76,-106.01C417.32,-127.25 455.61,-150.79 472.36,-161.09"/>
<polygon fill="black" stroke="black" points="470.65,-164.14 481,-166.4 474.31,-158.18 470.65,-164.14"/>
<text text-anchor="middle" x="359.26" y="-109.81" font-family="Times,serif" font-size="14.00"> &#160;&#160;&#160;&#160;&#160;&#160;text</text>
</g>
<!-- DrawingEditor -->
<g id="node5" class="node">
<title>DrawingEditor</title>
<polygon fill="white" stroke="black" points="0,-183.4 0,-219.4 98,-219.4 98,-183.4 0,-183.4"/>
<text text-anchor="middle" x="49" y="-197.7" font-family="Times,serif" font-size="14.00">DrawingEditor</text>
</g>
<!-- DrawingEditor&#45;&gt;Shape -->
<g id="edge1" class="edge">
<title>DrawingEditor&#45;&gt;Shape</title>
<path fill="none" stroke="black" d="M98.19,-201.4C114.11,-201.4 132.2,-201.4 149.73,-201.4"/>
<polygon fill="black" stroke="black" points="149.97,-204.9 159.97,-201.4 149.97,-197.9 149.97,-204.9"/>
</g>
<!-- Spacer -->
<!-- note2 -->
<g id="node7" class="node">
<title>note2</title>
<polygon fill="white" stroke="black" points="552,-86 404,-86 404,0 558,0 558,-80 552,-86"/>
<polyline fill="none" stroke="black" points="552,-86 552,-80 "/>
<polyline fill="none" stroke="black" points="558,-80 552,-80 "/>
<text text-anchor="start" x="412" y="-74" font-family="Times,serif" font-size="10.00">boundingBox() {</text>
<text text-anchor="start" x="412" y="-63" font-family="Times,serif" font-size="10.00"> &#160;&#160;&#160;&#160;&#160;text&#45;&gt;getExtent();</text>
<text text-anchor="start" x="412" y="-52" font-family="Times,serif" font-size="10.00">}</text>
<text text-anchor="start" x="412" y="-29" font-family="Times,serif" font-size="10.00">createManipulator() {</text>
<text text-anchor="start" x="412" y="-18" font-family="Times,serif" font-size="10.00"> &#160;&#160;&#160;&#160;&#160;return new TextManipulator();</text>
<text text-anchor="start" x="412" y="-7" font-family="Times,serif" font-size="10.00">}</text>
</g>
<!-- note2&#45;&gt;TextShape -->
<g id="edge5" class="edge">
<title>note2&#45;&gt;TextShape</title>
<path fill="none" stroke="black" stroke-dasharray="5,2" d="M403.53,-53.1C396.63,-54 389.68,-54.91 382.87,-55.8"/>
</g>
</g>
</svg>
