<?xml version="1.0" encoding="UTF-8" standalone="no"?>
<!DOCTYPE svg PUBLIC "-//W3C//DTD SVG 1.1//EN"
 "http://www.w3.org/Graphics/SVG/1.1/DTD/svg11.dtd">
<!-- Generated by graphviz version 3.0.0 (20220226.1711)
 -->
<!-- Title: hierarchy Pages: 1 -->
<svg width="360pt" height="148pt"
 viewBox="0.00 0.00 360.00 147.80" xmlns="http://www.w3.org/2000/svg" xmlns:xlink="http://www.w3.org/1999/xlink">
<g id="graph0" class="graph" transform="scale(0.644007 0.644007) rotate(0) translate(4 225.5)">
<title>hierarchy</title>
<!-- Context -->
<g id="node1" class="node">
<title>Context</title>
<polygon fill="white" stroke="black" points="19,-137 19,-221 106,-221 106,-137 19,-137"/>
<text text-anchor="start" x="27" y="-205.8" font-family="Times,serif" font-size="14.00">Composition</text>
<polyline fill="none" stroke="black" points="19,-198 106,-198 "/>
<text text-anchor="start" x="60.5" y="-182.8" font-family="Times,serif" font-size="14.00"> </text>
<polyline fill="none" stroke="black" points="19,-175 106,-175 "/>
<text text-anchor="start" x="32" y="-159.8" font-family="Times,serif" font-size="14.00">+traverse()</text>
<text text-anchor="start" x="38" y="-144.8" font-family="Times,serif" font-size="14.00">+repair()</text>
</g>
<!-- Strategy -->
<g id="node2" class="node">
<title>Strategy</title>
<polygon fill="white" stroke="black" points="330.6,-144.5 330.6,-213.5 413.6,-213.5 413.6,-144.5 330.6,-144.5"/>
<text text-anchor="start" x="340.1" y="-199.3" font-family="Times,serif" font-style="italic" font-size="14.00">Compositor</text>
<polyline fill="none" stroke="black" points="330.6,-190.5 413.6,-190.5 "/>
<text text-anchor="start" x="370.1" y="-175.3" font-family="Times,serif" font-size="14.00"> </text>
<polyline fill="none" stroke="black" points="330.6,-167.5 413.6,-167.5 "/>
<text text-anchor="start" x="338.6" y="-153.3" font-family="Times,serif" font-style="italic" font-size="14.00">+compose()</text>
</g>
<!-- Strategy&#45;&gt;Context -->
<g id="edge4" class="edge">
<title>Strategy&#45;&gt;Context</title>
<path fill="none" stroke="black" d="M330.35,-179C275.53,-179 179.13,-179 118.15,-179"/>
<polygon fill="none" stroke="black" points="118.08,-179 112.08,-183 106.08,-179 112.08,-175 118.08,-179"/>
<text text-anchor="middle" x="193.25" y="-182.8" font-family="Times,serif" font-size="14.00">compositor</text>
</g>
<!-- ConcreteStrategyA -->
<g id="node3" class="node">
<title>ConcreteStrategyA</title>
<polygon fill="white" stroke="black" points="182.5,-0.5 182.5,-69.5 302.5,-69.5 302.5,-0.5 182.5,-0.5"/>
<text text-anchor="start" x="190.5" y="-54.3" font-family="Times,serif" font-size="14.00">SimpleCompositor</text>
<polyline fill="none" stroke="black" points="182.5,-46.5 302.5,-46.5 "/>
<text text-anchor="start" x="240.5" y="-31.3" font-family="Times,serif" font-size="14.00"> </text>
<polyline fill="none" stroke="black" points="182.5,-23.5 302.5,-23.5 "/>
<text text-anchor="start" x="209" y="-8.3" font-family="Times,serif" font-size="14.00">+compose()</text>
</g>
<!-- ConcreteStrategyA&#45;&gt;Strategy -->
<g id="edge1" class="edge">
<title>ConcreteStrategyA&#45;&gt;Strategy</title>
<path fill="none" stroke="black" d="M273.87,-69.86C292.02,-90.02 314.98,-115.54 334.15,-136.83"/>
<polygon fill="none" stroke="black" points="331.73,-139.37 341.02,-144.46 336.93,-134.69 331.73,-139.37"/>
</g>
<!-- ConcreteStrategyB -->
<g id="node4" class="node">
<title>ConcreteStrategyB</title>
<polygon fill="white" stroke="black" points="320.1,-0.5 320.1,-69.5 424.1,-69.5 424.1,-0.5 320.1,-0.5"/>
<text text-anchor="start" x="328.1" y="-54.3" font-family="Times,serif" font-size="14.00">TeXCompositor</text>
<polyline fill="none" stroke="black" points="320.1,-46.5 424.1,-46.5 "/>
<text text-anchor="start" x="370.1" y="-31.3" font-family="Times,serif" font-size="14.00"> </text>
<polyline fill="none" stroke="black" points="320.1,-23.5 424.1,-23.5 "/>
<text text-anchor="start" x="338.6" y="-8.3" font-family="Times,serif" font-size="14.00">+compose()</text>
</g>
<!-- ConcreteStrategyB&#45;&gt;Strategy -->
<g id="edge2" class="edge">
<title>ConcreteStrategyB&#45;&gt;Strategy</title>
<path fill="none" stroke="black" d="M372.1,-69.86C372.1,-89.23 372.1,-113.53 372.1,-134.29"/>
<polygon fill="none" stroke="black" points="368.6,-134.46 372.1,-144.46 375.6,-134.46 368.6,-134.46"/>
</g>
<!-- ConcreteStrategyC -->
<g id="node5" class="node">
<title>ConcreteStrategyC</title>
<polygon fill="white" stroke="black" points="438,-0.5 438,-69.5 551,-69.5 551,-0.5 438,-0.5"/>
<text text-anchor="start" x="446" y="-54.3" font-family="Times,serif" font-size="14.00">ArrayCompositor</text>
<polyline fill="none" stroke="black" points="438,-46.5 551,-46.5 "/>
<text text-anchor="start" x="492.5" y="-31.3" font-family="Times,serif" font-size="14.00"> </text>
<polyline fill="none" stroke="black" points="438,-23.5 551,-23.5 "/>
<text text-anchor="start" x="461" y="-8.3" font-family="Times,serif" font-size="14.00">+compose()</text>
</g>
<!-- ConcreteStrategyC&#45;&gt;Strategy -->
<g id="edge3" class="edge">
<title>ConcreteStrategyC&#45;&gt;Strategy</title>
<path fill="none" stroke="black" d="M464.87,-69.86C447.73,-90.02 426.04,-115.54 407.95,-136.83"/>
<polygon fill="none" stroke="black" points="405.27,-134.58 401.46,-144.46 410.6,-139.11 405.27,-134.58"/>
</g>
<!-- note1 -->
<g id="node6" class="node">
<title>note1</title>
<polygon fill="white" stroke="black" points="119,-91.5 0,-91.5 0,-50.5 125,-50.5 125,-85.5 119,-91.5"/>
<polyline fill="none" stroke="black" points="119,-91.5 119,-85.5 "/>
<polyline fill="none" stroke="black" points="125,-85.5 119,-85.5 "/>
<text text-anchor="start" x="8" y="-79.5" font-family="Times,serif" font-size="10.00">repair() {</text>
<text text-anchor="middle" x="62.5" y="-68.5" font-family="Times,serif" font-size="10.00"> &#160;&#160;&#160;compositor&#45;&gt;compose();</text>
<text text-anchor="start" x="8" y="-57.5" font-family="Times,serif" font-size="10.00">}</text>
</g>
<!-- note1&#45;&gt;Context -->
<g id="edge5" class="edge">
<title>note1&#45;&gt;Context</title>
<path fill="none" stroke="black" stroke-dasharray="5,2" d="M62.5,-91.57C62.5,-104.3 62.5,-121.11 62.5,-136.6"/>
</g>
</g>
</svg>
