<?xml version="1.0" encoding="UTF-8" standalone="no"?>
<!DOCTYPE svg PUBLIC "-//W3C//DTD SVG 1.1//EN"
 "http://www.w3.org/Graphics/SVG/1.1/DTD/svg11.dtd">
<!-- Generated by graphviz version 3.0.0 (20220226.1711)
 -->
<!-- Title: hierarchy Pages: 1 -->
<svg width="360pt" height="146pt"
 viewBox="0.00 0.00 360.00 146.05" xmlns="http://www.w3.org/2000/svg" xmlns:xlink="http://www.w3.org/1999/xlink">
<g id="graph0" class="graph" transform="scale(0.657895 0.657895) rotate(0) translate(4 218)">
<title>hierarchy</title>
<!-- Context -->
<g id="node1" class="node">
<title>Context</title>
<polygon fill="white" stroke="black" points="0,-144.5 0,-213.5 81,-213.5 81,-144.5 0,-144.5"/>
<text text-anchor="start" x="19" y="-198.3" font-family="Times,serif" font-size="14.00">Context</text>
<polyline fill="none" stroke="black" points="0,-190.5 81,-190.5 "/>
<text text-anchor="start" x="38.5" y="-175.3" font-family="Times,serif" font-size="14.00"> </text>
<polyline fill="none" stroke="black" points="0,-167.5 81,-167.5 "/>
<text text-anchor="start" x="8" y="-152.3" font-family="Times,serif" font-size="14.00">+interface()</text>
</g>
<!-- Strategy -->
<g id="node2" class="node">
<title>Strategy</title>
<polygon fill="white" stroke="black" points="308.6,-144.5 308.6,-213.5 391.6,-213.5 391.6,-144.5 308.6,-144.5"/>
<text text-anchor="start" x="327.1" y="-199.3" font-family="Times,serif" font-style="italic" font-size="14.00">Strategy</text>
<polyline fill="none" stroke="black" points="308.6,-190.5 391.6,-190.5 "/>
<text text-anchor="start" x="348.1" y="-175.3" font-family="Times,serif" font-size="14.00"> </text>
<polyline fill="none" stroke="black" points="308.6,-167.5 391.6,-167.5 "/>
<text text-anchor="start" x="316.6" y="-153.3" font-family="Times,serif" font-style="italic" font-size="14.00">+interface()</text>
</g>
<!-- Strategy&#45;&gt;Context -->
<g id="edge4" class="edge">
<title>Strategy&#45;&gt;Context</title>
<path fill="none" stroke="black" d="M308.35,-179C252.72,-179 154.27,-179 93.47,-179"/>
<polygon fill="none" stroke="black" points="93.1,-179 87.1,-183 81.1,-179 87.1,-175 93.1,-179"/>
<text text-anchor="middle" x="179.41" y="-182.8" font-family="Times,serif" font-size="14.00">strategy</text>
</g>
<!-- ConcreteStrategyA -->
<g id="node3" class="node">
<title>ConcreteStrategyA</title>
<polygon fill="white" stroke="black" points="160.5,-0.5 160.5,-69.5 280.5,-69.5 280.5,-0.5 160.5,-0.5"/>
<text text-anchor="start" x="168.5" y="-54.3" font-family="Times,serif" font-size="14.00">ConcreteStrategyA</text>
<polyline fill="none" stroke="black" points="160.5,-46.5 280.5,-46.5 "/>
<text text-anchor="start" x="218.5" y="-31.3" font-family="Times,serif" font-size="14.00"> </text>
<polyline fill="none" stroke="black" points="160.5,-23.5 280.5,-23.5 "/>
<text text-anchor="start" x="188" y="-8.3" font-family="Times,serif" font-size="14.00">+interface()</text>
</g>
<!-- ConcreteStrategyA&#45;&gt;Strategy -->
<g id="edge1" class="edge">
<title>ConcreteStrategyA&#45;&gt;Strategy</title>
<path fill="none" stroke="black" d="M251.87,-69.86C270.02,-90.02 292.98,-115.54 312.15,-136.83"/>
<polygon fill="none" stroke="black" points="309.73,-139.37 319.02,-144.46 314.93,-134.69 309.73,-139.37"/>
</g>
<!-- ConcreteStrategyB -->
<g id="node4" class="node">
<title>ConcreteStrategyB</title>
<polygon fill="white" stroke="black" points="290.6,-0.5 290.6,-69.5 409.6,-69.5 409.6,-0.5 290.6,-0.5"/>
<text text-anchor="start" x="298.6" y="-54.3" font-family="Times,serif" font-size="14.00">ConcreteStrategyB</text>
<polyline fill="none" stroke="black" points="290.6,-46.5 409.6,-46.5 "/>
<text text-anchor="start" x="348.1" y="-31.3" font-family="Times,serif" font-size="14.00"> </text>
<polyline fill="none" stroke="black" points="290.6,-23.5 409.6,-23.5 "/>
<text text-anchor="start" x="317.6" y="-8.3" font-family="Times,serif" font-size="14.00">+interface()</text>
</g>
<!-- ConcreteStrategyB&#45;&gt;Strategy -->
<g id="edge2" class="edge">
<title>ConcreteStrategyB&#45;&gt;Strategy</title>
<path fill="none" stroke="black" d="M350.1,-69.86C350.1,-89.23 350.1,-113.53 350.1,-134.29"/>
<polygon fill="none" stroke="black" points="346.6,-134.46 350.1,-144.46 353.6,-134.46 346.6,-134.46"/>
</g>
<!-- ConcreteStrategyC -->
<g id="node5" class="node">
<title>ConcreteStrategyC</title>
<polygon fill="white" stroke="black" points="420.2,-0.5 420.2,-69.5 539.2,-69.5 539.2,-0.5 420.2,-0.5"/>
<text text-anchor="start" x="428.2" y="-54.3" font-family="Times,serif" font-size="14.00">ConcreteStrategyC</text>
<polyline fill="none" stroke="black" points="420.2,-46.5 539.2,-46.5 "/>
<text text-anchor="start" x="477.7" y="-31.3" font-family="Times,serif" font-size="14.00"> </text>
<polyline fill="none" stroke="black" points="420.2,-23.5 539.2,-23.5 "/>
<text text-anchor="start" x="447.2" y="-8.3" font-family="Times,serif" font-size="14.00">+interface()</text>
</g>
<!-- ConcreteStrategyC&#45;&gt;Strategy -->
<g id="edge3" class="edge">
<title>ConcreteStrategyC&#45;&gt;Strategy</title>
<path fill="none" stroke="black" d="M448.33,-69.86C430.18,-90.02 407.22,-115.54 388.05,-136.83"/>
<polygon fill="none" stroke="black" points="385.27,-134.69 381.18,-144.46 390.47,-139.37 385.27,-134.69"/>
</g>
</g>
</svg>
