<?xml version="1.0" encoding="UTF-8" standalone="no"?><!DOCTYPE svg PUBLIC "-//W3C//DTD SVG 1.1//EN" "http://www.w3.org/Graphics/SVG/1.1/DTD/svg11.dtd"><!-- Generated by graphviz version 2.40.1 (20161225.0304)
 --><!-- Title: diagram Pages: 1 --><svg xmlns="http://www.w3.org/2000/svg" xmlns:xlink="http://www.w3.org/1999/xlink" width="194pt" height="116pt" viewBox="0.00 0.00 193.67 116.00">
<g id="graph0" class="graph" transform="scale(1 1) rotate(0) translate(4 112)">
<title>diagram</title>
<!-- System -->
<g id="node1" class="node">
<title>System</title>
<polygon fill="none" stroke="#000000" points="121.5572,-108 76.1104,-108 76.1104,-112 64.1104,-112 64.1104,-72 121.5572,-72 121.5572,-108"/>
<polyline fill="none" stroke="#000000" points="64.1104,-108 76.1104,-108 "/>
<text text-anchor="middle" x="92.8338" y="-85.8" font-family="Times,serif" font-size="14.00" fill="#000000">System</text>
</g>
<!-- Subsystem1 -->
<g id="node2" class="node">
<title>Subsystem1</title>
<polygon fill="none" stroke="#000000" points="83.5021,-36 12.1655,-36 12.1655,-40 .1655,-40 .1655,0 83.5021,0 83.5021,-36"/>
<polyline fill="none" stroke="#000000" points=".1655,-36 12.1655,-36 "/>
<text text-anchor="middle" x="41.8338" y="-13.8" font-family="Times,serif" font-size="14.00" fill="#000000">Subsystem1</text>
</g>
<!-- System&#45;&gt;Subsystem1 -->
<g id="edge1" class="edge">
<title>System-&gt;Subsystem1</title>
<path fill="none" stroke="#000000" stroke-dasharray="5,2" d="M79.9643,-71.8314C74.1503,-63.6232 67.1642,-53.7606 60.7692,-44.7323"/>
<polygon fill="#000000" stroke="#000000" points="63.5128,-42.5505 54.8765,-36.4133 57.8007,-46.5966 63.5128,-42.5505"/>
</g>
<!-- Subsystem2 -->
<g id="node3" class="node">
<title>Subsystem2</title>
<polygon fill="none" stroke="#000000" points="185.5021,-36 114.1655,-36 114.1655,-40 102.1655,-40 102.1655,0 185.5021,0 185.5021,-36"/>
<polyline fill="none" stroke="#000000" points="102.1655,-36 114.1655,-36 "/>
<text text-anchor="middle" x="143.8338" y="-13.8" font-family="Times,serif" font-size="14.00" fill="#000000">Subsystem2</text>
</g>
<!-- System&#45;&gt;Subsystem2 -->
<g id="edge2" class="edge">
<title>System-&gt;Subsystem2</title>
<path fill="none" stroke="#000000" stroke-dasharray="5,2" d="M105.7033,-71.8314C111.5173,-63.6232 118.5034,-53.7606 124.8984,-44.7323"/>
<polygon fill="#000000" stroke="#000000" points="127.8669,-46.5966 130.7911,-36.4133 122.1548,-42.5505 127.8669,-46.5966"/>
</g>
</g>
</svg>