<?xml version="1.0" encoding="UTF-8" standalone="no"?>
<!DOCTYPE svg PUBLIC "-//W3C//DTD SVG 1.1//EN"
 "http://www.w3.org/Graphics/SVG/1.1/DTD/svg11.dtd">
<!-- Generated by graphviz version 3.0.0 (20220226.1711)
 -->
<!-- Title: hierarchy Pages: 1 -->
<svg width="360pt" height="234pt"
 viewBox="0.00 0.00 360.00 233.92" xmlns="http://www.w3.org/2000/svg" xmlns:xlink="http://www.w3.org/1999/xlink">
<g id="graph0" class="graph" transform="scale(0.779727 0.779727) rotate(0) translate(4 296)">
<title>hierarchy</title>
<!-- Graphic -->
<g id="node1" class="node">
<title>Graphic</title>
<polygon fill="white" stroke="black" points="76,-181.5 76,-291.5 201,-291.5 201,-181.5 76,-181.5"/>
<text text-anchor="start" x="115.5" y="-277.3" font-family="Times,serif" font-style="italic" font-size="14.00">Graphic</text>
<polyline fill="none" stroke="black" points="76,-268.5 201,-268.5 "/>
<text text-anchor="start" x="136.5" y="-253.3" font-family="Times,serif" font-size="14.00"> </text>
<polyline fill="none" stroke="black" points="76,-245.5 201,-245.5 "/>
<text text-anchor="start" x="115" y="-231.3" font-family="Times,serif" font-style="italic" font-size="14.00">+draw()</text>
<text text-anchor="start" x="94" y="-217.3" font-family="Times,serif" font-style="italic" font-size="14.00">+add(:Graphic)</text>
<text text-anchor="start" x="84" y="-203.3" font-family="Times,serif" font-style="italic" font-size="14.00">+remove(:Graphic)</text>
<text text-anchor="start" x="105.5" y="-189.3" font-family="Times,serif" font-style="italic" font-size="14.00">+getChild()</text>
</g>
<!-- point2 -->
<g id="node7" class="node">
<title>point2</title>
<ellipse fill="black" stroke="black" cx="390.5" cy="-236.5" rx="1.8" ry="1.8"/>
</g>
<!-- Graphic&#45;&gt;point2 -->
<g id="edge7" class="edge">
<title>Graphic&#45;&gt;point2</title>
<path fill="none" stroke="black" d="M201.12,-236.5C269.92,-236.5 372.82,-236.5 388.47,-236.5"/>
</g>
<!-- Line -->
<g id="node2" class="node">
<title>Line</title>
<polygon fill="white" stroke="black" points="0,-58 0,-127 61,-127 61,-58 0,-58"/>
<text text-anchor="start" x="18" y="-111.8" font-family="Times,serif" font-size="14.00">Line</text>
<polyline fill="none" stroke="black" points="0,-104 61,-104 "/>
<text text-anchor="start" x="28.5" y="-88.8" font-family="Times,serif" font-size="14.00"> </text>
<polyline fill="none" stroke="black" points="0,-81 61,-81 "/>
<text text-anchor="start" x="8" y="-65.8" font-family="Times,serif" font-size="14.00">+draw()</text>
</g>
<!-- Line&#45;&gt;Graphic -->
<g id="edge1" class="edge">
<title>Line&#45;&gt;Graphic</title>
<path fill="none" stroke="black" d="M56.64,-127.36C67.01,-141.18 79.26,-157.52 91.09,-173.28"/>
<polygon fill="none" stroke="black" points="88.42,-175.56 97.22,-181.46 94.02,-171.36 88.42,-175.56"/>
</g>
<!-- Rectangle -->
<g id="node3" class="node">
<title>Rectangle</title>
<polygon fill="white" stroke="black" points="67,-58 67,-127 138,-127 138,-58 67,-58"/>
<text text-anchor="start" x="75" y="-111.8" font-family="Times,serif" font-size="14.00">Rectangle</text>
<polyline fill="none" stroke="black" points="67,-104 138,-104 "/>
<text text-anchor="start" x="100.5" y="-88.8" font-family="Times,serif" font-size="14.00"> </text>
<polyline fill="none" stroke="black" points="67,-81 138,-81 "/>
<text text-anchor="start" x="80" y="-65.8" font-family="Times,serif" font-size="14.00">+draw()</text>
</g>
<!-- Rectangle&#45;&gt;Graphic -->
<g id="edge2" class="edge">
<title>Rectangle&#45;&gt;Graphic</title>
<path fill="none" stroke="black" d="M111.21,-127.36C114.54,-140.67 118.46,-156.32 122.26,-171.55"/>
<polygon fill="none" stroke="black" points="118.92,-172.61 124.74,-181.46 125.71,-170.91 118.92,-172.61"/>
</g>
<!-- Text -->
<g id="node4" class="node">
<title>Text</title>
<polygon fill="white" stroke="black" points="144,-58 144,-127 205,-127 205,-58 144,-58"/>
<text text-anchor="start" x="162" y="-111.8" font-family="Times,serif" font-size="14.00">Text</text>
<polyline fill="none" stroke="black" points="144,-104 205,-104 "/>
<text text-anchor="start" x="172.5" y="-88.8" font-family="Times,serif" font-size="14.00"> </text>
<polyline fill="none" stroke="black" points="144,-81 205,-81 "/>
<text text-anchor="start" x="152" y="-65.8" font-family="Times,serif" font-size="14.00">+draw()</text>
</g>
<!-- Text&#45;&gt;Graphic -->
<g id="edge3" class="edge">
<title>Text&#45;&gt;Graphic</title>
<path fill="none" stroke="black" d="M165.79,-127.36C162.46,-140.67 158.54,-156.32 154.74,-171.55"/>
<polygon fill="none" stroke="black" points="151.29,-170.91 152.26,-181.46 158.08,-172.61 151.29,-170.91"/>
</g>
<!-- Picture -->
<g id="node5" class="node">
<title>Picture</title>
<polygon fill="white" stroke="black" points="210.7,-16.06 210.7,-130.06 332.7,-130.06 332.7,-16.06 210.7,-16.06"/>
<text text-anchor="middle" x="271.7" y="-114.86" font-family="Times,serif" font-size="14.00">Picture</text>
<polyline fill="none" stroke="black" points="210.7,-107.06 332.7,-107.06 "/>
<text text-anchor="middle" x="271.7" y="-91.86" font-family="Times,serif" font-size="14.00"> </text>
<polyline fill="none" stroke="black" points="210.7,-84.06 332.7,-84.06 "/>
<text text-anchor="middle" x="271.7" y="-68.86" font-family="Times,serif" font-size="14.00">+draw()</text>
<text text-anchor="middle" x="271.7" y="-53.86" font-family="Times,serif" font-size="14.00">+add(:Graphic)</text>
<text text-anchor="middle" x="271.7" y="-38.86" font-family="Times,serif" font-size="14.00">+remove(:Graphic)</text>
<text text-anchor="middle" x="271.7" y="-23.86" font-family="Times,serif" font-size="14.00">+getChild()</text>
</g>
<!-- Picture&#45;&gt;Graphic -->
<g id="edge4" class="edge">
<title>Picture&#45;&gt;Graphic</title>
<path fill="none" stroke="black" d="M225.11,-130.22C213.72,-144.2 201.46,-159.24 189.86,-173.48"/>
<polygon fill="none" stroke="black" points="187.1,-171.33 183.49,-181.29 192.52,-175.75 187.1,-171.33"/>
</g>
<!-- point1 -->
<g id="node6" class="node">
<title>point1</title>
<ellipse fill="black" stroke="black" cx="390.5" cy="-124.9" rx="1.8" ry="1.8"/>
</g>
<!-- Spacer -->
<!-- point1&#45;&gt;Spacer -->
<g id="edge5" class="edge">
<title>point1&#45;&gt;Spacer:w</title>
<path fill="none" stroke="black" d="M388.64,-124.9C382.29,-124.9 361.04,-124.9 347.19,-124.9"/>
<polygon fill="none" stroke="black" points="346.7,-124.9 340.7,-128.9 334.7,-124.9 340.7,-120.9 346.7,-124.9"/>
<text text-anchor="middle" x="411.64" y="-113.7" font-family="Times,serif" font-size="14.00">graphics</text>
</g>
<!-- point2&#45;&gt;point1 -->
<g id="edge6" class="edge">
<title>point2&#45;&gt;point1</title>
<path fill="none" stroke="black" d="M390.5,-234.56C390.5,-221.02 390.5,-140.61 390.5,-126.89"/>
</g>
<!-- note1 -->
<g id="node9" class="node">
<title>note1</title>
<polygon fill="white" stroke="black" points="447.7,-41 341.7,-41 341.7,0 453.7,0 453.7,-35 447.7,-41"/>
<polyline fill="none" stroke="black" points="447.7,-41 447.7,-35 "/>
<polyline fill="none" stroke="black" points="453.7,-35 447.7,-35 "/>
<text text-anchor="middle" x="397.7" y="-29" font-family="Times,serif" font-size="10.00">add(g:Graphic) {</text>
<text text-anchor="middle" x="397.7" y="-18" font-family="Times,serif" font-size="10.00">add g to list of graphics</text>
<text text-anchor="middle" x="397.7" y="-7" font-family="Times,serif" font-size="10.00">}</text>
</g>
<!-- note1&#45;&gt;Picture -->
<g id="edge8" class="edge">
<title>note1:w&#45;&gt;Picture</title>
<path fill="none" stroke="black" stroke-dasharray="5,2" d="M341.7,-20.5C341.7,-20.5 338.23,-23.11 332.83,-27.16"/>
</g>
<!-- note2 -->
<g id="node10" class="node">
<title>note2</title>
<polygon fill="white" stroke="black" points="432,-100.5 343,-100.5 343,-48.5 438,-48.5 438,-94.5 432,-100.5"/>
<polyline fill="none" stroke="black" points="432,-100.5 432,-94.5 "/>
<polyline fill="none" stroke="black" points="438,-94.5 432,-94.5 "/>
<text text-anchor="middle" x="390.5" y="-88.5" font-family="Times,serif" font-size="10.00">draw() {</text>
<text text-anchor="middle" x="390.5" y="-77.5" font-family="Times,serif" font-size="10.00">for all g in graphics</text>
<text text-anchor="middle" x="390.5" y="-66.5" font-family="Times,serif" font-size="10.00">g&#45;&gt;draw()</text>
<text text-anchor="middle" x="390.5" y="-55.5" font-family="Times,serif" font-size="10.00">}</text>
</g>
<!-- note2&#45;&gt;Picture -->
<g id="edge9" class="edge">
<title>note2&#45;&gt;Picture</title>
<path fill="none" stroke="black" stroke-dasharray="5,2" d="M342.86,-73.92C339.64,-73.88 336.36,-73.84 333.08,-73.8"/>
</g>
</g>
</svg>
