<?xml version="1.0" encoding="UTF-8" standalone="no"?>
<!DOCTYPE svg PUBLIC "-//W3C//DTD SVG 1.1//EN"
 "http://www.w3.org/Graphics/SVG/1.1/DTD/svg11.dtd">
<!-- Generated by graphviz version 3.0.0 (20220226.1711)
 -->
<!-- Title: hierarchy Pages: 1 -->
<svg width="361pt" height="188pt"
 viewBox="0.00 0.00 361.34 188.00" xmlns="http://www.w3.org/2000/svg" xmlns:xlink="http://www.w3.org/1999/xlink">
<g id="graph0" class="graph" transform="scale(1 1) rotate(0) translate(4 184)">
<title>hierarchy</title>
<!-- picture -->
<g id="node1" class="node">
<title>picture</title>
<ellipse fill="white" stroke="black" cx="210.25" cy="-162" rx="38.19" ry="18"/>
<text text-anchor="middle" x="210.25" y="-158.3" font-family="Times,serif" font-size="14.00">:Picture</text>
</g>
<!-- picture2 -->
<g id="node2" class="node">
<title>picture2</title>
<ellipse fill="white" stroke="black" cx="124.25" cy="-90" rx="38.19" ry="18"/>
<text text-anchor="middle" x="124.25" y="-86.3" font-family="Times,serif" font-size="14.00">:Picture</text>
</g>
<!-- picture&#45;&gt;picture2 -->
<g id="edge1" class="edge">
<title>picture&#45;&gt;picture2</title>
<path fill="none" stroke="black" d="M192.01,-146.15C180,-136.38 164.09,-123.43 150.71,-112.54"/>
<polygon fill="black" stroke="black" points="152.72,-109.66 142.76,-106.07 148.3,-115.09 152.72,-109.66"/>
</g>
<!-- line -->
<g id="node3" class="node">
<title>line</title>
<ellipse fill="white" stroke="black" cx="210.25" cy="-90" rx="29.5" ry="18"/>
<text text-anchor="middle" x="210.25" y="-86.3" font-family="Times,serif" font-size="14.00">:Line</text>
</g>
<!-- picture&#45;&gt;line -->
<g id="edge2" class="edge">
<title>picture&#45;&gt;line</title>
<path fill="none" stroke="black" d="M210.25,-143.7C210.25,-135.98 210.25,-126.71 210.25,-118.11"/>
<polygon fill="black" stroke="black" points="213.75,-118.1 210.25,-108.1 206.75,-118.1 213.75,-118.1"/>
</g>
<!-- rectangle -->
<g id="node5" class="node">
<title>rectangle</title>
<ellipse fill="white" stroke="black" cx="305.25" cy="-90" rx="48.19" ry="18"/>
<text text-anchor="middle" x="305.25" y="-86.3" font-family="Times,serif" font-size="14.00">:Rectangle</text>
</g>
<!-- picture&#45;&gt;rectangle -->
<g id="edge3" class="edge">
<title>picture&#45;&gt;rectangle</title>
<path fill="none" stroke="black" d="M229.93,-146.5C243.2,-136.72 260.93,-123.65 275.86,-112.65"/>
<polygon fill="black" stroke="black" points="278.3,-115.21 284.27,-106.46 274.14,-109.57 278.3,-115.21"/>
</g>
<!-- line2 -->
<g id="node4" class="node">
<title>line2</title>
<ellipse fill="white" stroke="black" cx="29.25" cy="-18" rx="29.5" ry="18"/>
<text text-anchor="middle" x="29.25" y="-14.3" font-family="Times,serif" font-size="14.00">:Line</text>
</g>
<!-- picture2&#45;&gt;line2 -->
<g id="edge5" class="edge">
<title>picture2&#45;&gt;line2</title>
<path fill="none" stroke="black" d="M104.56,-74.5C90.35,-64.02 71,-49.77 55.47,-38.33"/>
<polygon fill="black" stroke="black" points="57.43,-35.42 47.3,-32.3 53.27,-41.05 57.43,-35.42"/>
</g>
<!-- rectangle2 -->
<g id="node6" class="node">
<title>rectangle2</title>
<ellipse fill="white" stroke="black" cx="124.25" cy="-18" rx="48.19" ry="18"/>
<text text-anchor="middle" x="124.25" y="-14.3" font-family="Times,serif" font-size="14.00">:Rectangle</text>
</g>
<!-- picture2&#45;&gt;rectangle2 -->
<g id="edge6" class="edge">
<title>picture2&#45;&gt;rectangle2</title>
<path fill="none" stroke="black" d="M124.25,-71.7C124.25,-63.98 124.25,-54.71 124.25,-46.11"/>
<polygon fill="black" stroke="black" points="127.75,-46.1 124.25,-36.1 120.75,-46.1 127.75,-46.1"/>
</g>
<!-- text -->
<g id="node7" class="node">
<title>text</title>
<ellipse fill="white" stroke="black" cx="219.25" cy="-18" rx="28.7" ry="18"/>
<text text-anchor="middle" x="219.25" y="-14.3" font-family="Times,serif" font-size="14.00">:Text</text>
</g>
<!-- picture2&#45;&gt;text -->
<g id="edge4" class="edge">
<title>picture2&#45;&gt;text</title>
<path fill="none" stroke="black" d="M143.93,-74.5C158.15,-64.02 177.49,-49.77 193.02,-38.33"/>
<polygon fill="black" stroke="black" points="195.22,-41.05 201.2,-32.3 191.07,-35.42 195.22,-41.05"/>
</g>
</g>
</svg>
