<?xml version="1.0" encoding="UTF-8" standalone="no"?>
<!DOCTYPE svg PUBLIC "-//W3C//DTD SVG 1.1//EN"
 "http://www.w3.org/Graphics/SVG/1.1/DTD/svg11.dtd">
<!-- Generated by graphviz version 3.0.0 (20220226.1711)
 -->
<!-- Title: hierarchy Pages: 1 -->
<svg width="360pt" height="191pt"
 viewBox="0.00 0.00 360.00 191.37" xmlns="http://www.w3.org/2000/svg" xmlns:xlink="http://www.w3.org/1999/xlink">
<g id="graph0" class="graph" transform="scale(0.672793 0.672793) rotate(0) translate(4 280.44)">
<title>hierarchy</title>
<!-- Component -->
<g id="node1" class="node">
<title>Component</title>
<polygon fill="white" stroke="black" points="136,-165.94 136,-275.94 278,-275.94 278,-165.94 136,-165.94"/>
<text text-anchor="start" x="175.5" y="-261.74" font-family="Times,serif" font-style="italic" font-size="14.00">Component</text>
<polyline fill="none" stroke="black" points="136,-252.94 278,-252.94 "/>
<text text-anchor="start" x="205" y="-237.74" font-family="Times,serif" font-size="14.00"> </text>
<polyline fill="none" stroke="black" points="136,-229.94 278,-229.94 "/>
<text text-anchor="start" x="171" y="-215.74" font-family="Times,serif" font-style="italic" font-size="14.00">+operation()</text>
<text text-anchor="start" x="154" y="-201.74" font-family="Times,serif" font-style="italic" font-size="14.00">+add(:Component)</text>
<text text-anchor="start" x="144" y="-187.74" font-family="Times,serif" font-style="italic" font-size="14.00">+remove(:Component)</text>
<text text-anchor="start" x="174" y="-173.74" font-family="Times,serif" font-style="italic" font-size="14.00">+getChild()</text>
</g>
<!-- point2 -->
<g id="node6" class="node">
<title>point2</title>
<ellipse fill="black" stroke="black" cx="459" cy="-220.94" rx="1.8" ry="1.8"/>
</g>
<!-- Component&#45;&gt;point2 -->
<g id="edge6" class="edge">
<title>Component&#45;&gt;point2</title>
<path fill="none" stroke="black" d="M278.2,-220.94C346.9,-220.94 442.59,-220.94 457.12,-220.94"/>
</g>
<!-- Leaf -->
<g id="node2" class="node">
<title>Leaf</title>
<polygon fill="white" stroke="black" points="92.5,-49.64 92.5,-118.64 177.5,-118.64 177.5,-49.64 92.5,-49.64"/>
<text text-anchor="start" x="122.5" y="-103.44" font-family="Times,serif" font-size="14.00">Leaf</text>
<polyline fill="none" stroke="black" points="92.5,-95.64 177.5,-95.64 "/>
<text text-anchor="start" x="133" y="-80.44" font-family="Times,serif" font-size="14.00"> </text>
<polyline fill="none" stroke="black" points="92.5,-72.64 177.5,-72.64 "/>
<text text-anchor="start" x="100.5" y="-57.44" font-family="Times,serif" font-size="14.00">+operation()</text>
</g>
<!-- Leaf&#45;&gt;Component -->
<g id="edge2" class="edge">
<title>Leaf&#45;&gt;Component</title>
<path fill="none" stroke="black" d="M153.17,-118.66C159.3,-130.3 166.34,-143.69 173.28,-156.87"/>
<polygon fill="none" stroke="black" points="170.29,-158.71 178.05,-165.93 176.49,-155.45 170.29,-158.71"/>
</g>
<!-- Composite -->
<g id="node3" class="node">
<title>Composite</title>
<polygon fill="white" stroke="black" points="221.9,-0.5 221.9,-114.5 364.9,-114.5 364.9,-0.5 221.9,-0.5"/>
<text text-anchor="middle" x="293.4" y="-99.3" font-family="Times,serif" font-size="14.00">Composite</text>
<polyline fill="none" stroke="black" points="221.9,-91.5 364.9,-91.5 "/>
<text text-anchor="middle" x="293.4" y="-76.3" font-family="Times,serif" font-size="14.00"> </text>
<polyline fill="none" stroke="black" points="221.9,-68.5 364.9,-68.5 "/>
<text text-anchor="middle" x="293.4" y="-53.3" font-family="Times,serif" font-size="14.00">+operation()</text>
<text text-anchor="middle" x="293.4" y="-38.3" font-family="Times,serif" font-size="14.00">+add(:Component)</text>
<text text-anchor="middle" x="293.4" y="-23.3" font-family="Times,serif" font-size="14.00">+remove(:Component)</text>
<text text-anchor="middle" x="293.4" y="-8.3" font-family="Times,serif" font-size="14.00">+getChild()</text>
</g>
<!-- Composite&#45;&gt;Component -->
<g id="edge3" class="edge">
<title>Composite&#45;&gt;Component</title>
<path fill="none" stroke="black" d="M263.18,-114.66C256,-128.26 248.28,-142.85 240.94,-156.73"/>
<polygon fill="none" stroke="black" points="237.76,-155.26 236.18,-165.73 243.95,-158.53 237.76,-155.26"/>
</g>
<!-- Client -->
<g id="node4" class="node">
<title>Client</title>
<polygon fill="white" stroke="black" points="0,-202.94 0,-238.94 54,-238.94 54,-202.94 0,-202.94"/>
<text text-anchor="middle" x="27" y="-217.24" font-family="Times,serif" font-size="14.00">Client</text>
</g>
<!-- Client&#45;&gt;Component -->
<g id="edge1" class="edge">
<title>Client&#45;&gt;Component</title>
<path fill="none" stroke="black" d="M54.34,-220.94C73.44,-220.94 100.02,-220.94 125.65,-220.94"/>
<polygon fill="black" stroke="black" points="125.79,-224.44 135.79,-220.94 125.79,-217.44 125.79,-224.44"/>
</g>
<!-- point1 -->
<g id="node5" class="node">
<title>point1</title>
<ellipse fill="black" stroke="black" cx="459" cy="-109.34" rx="1.8" ry="1.8"/>
</g>
<!-- Spacer -->
<!-- point1&#45;&gt;Spacer -->
<g id="edge4" class="edge">
<title>point1&#45;&gt;Spacer:w</title>
<path fill="none" stroke="black" d="M457.08,-109.34C447.2,-109.34 401.58,-109.34 379.39,-109.34"/>
<polygon fill="none" stroke="black" points="379.2,-109.34 373.2,-113.34 367.2,-109.34 373.2,-105.34 379.2,-109.34"/>
<text text-anchor="middle" x="492.08" y="-113.14" font-family="Times,serif" font-size="14.00">Components</text>
</g>
<!-- point2&#45;&gt;point1 -->
<g id="edge5" class="edge">
<title>point2&#45;&gt;point1</title>
<path fill="none" stroke="black" d="M459,-219C459,-205.46 459,-125.05 459,-111.33"/>
</g>
<!-- note2 -->
<g id="node8" class="node">
<title>note2</title>
<polygon fill="white" stroke="black" points="516,-84.94 396,-84.94 396,-32.94 522,-32.94 522,-78.94 516,-84.94"/>
<polyline fill="none" stroke="black" points="516,-84.94 516,-78.94 "/>
<polyline fill="none" stroke="black" points="522,-78.94 516,-78.94 "/>
<text text-anchor="start" x="404" y="-72.94" font-family="Times,serif" font-size="10.00">operation() {</text>
<text text-anchor="start" x="404" y="-61.94" font-family="Times,serif" font-size="10.00"> &#160;&#160;&#160;&#160;&#160;for all g in Components</text>
<text text-anchor="middle" x="459" y="-50.94" font-family="Times,serif" font-size="10.00">g&#45;&gt;operation()</text>
<text text-anchor="start" x="404" y="-39.94" font-family="Times,serif" font-size="10.00">}</text>
</g>
<!-- note2&#45;&gt;Composite -->
<g id="edge7" class="edge">
<title>note2&#45;&gt;Composite</title>
<path fill="none" stroke="black" stroke-dasharray="5,2" d="M395.92,-58.39C385.87,-58.3 375.4,-58.21 365.16,-58.12"/>
</g>
</g>
</svg>
